<svg version="1.1" xmlns="http://www.w3.org/2000/svg" style="display: block;" viewBox="0 0 2048 2048" width="1024" height="1024" preserveAspectRatio="none">
<path transform="translate(0,0)" fill="rgb(255,255,255)" d="M 0 0 L 2048 0 L 2048 2048 L 0 2048 L 0 0 z"/>
<path transform="translate(0,0)" fill="rgb(23,12,83)" d="M 800.951 1341.15 C 764.262 1368.02 729.855 1386.62 682.92 1385.69 C 596.053 1383.96 545.845 1310.8 515.178 1238.11 C 475.574 1143.06 463.365 1038.83 479.933 937.206 C 498.276 824.388 551.187 720.047 631.363 638.584 C 756.689 509.847 937.637 447.776 1115.34 477.942 C 1261.79 502.838 1392.39 584.814 1478.47 705.884 C 1563.83 824.953 1597.99 973.226 1573.34 1117.64 C 1554.39 1228.22 1485.3 1408.74 1338.02 1384.47 C 1306.38 1379.25 1277 1362.65 1250.56 1344.7 C 1171.12 1278.36 1135.91 1201.23 1119.74 1100.04 C 1127.72 1086.94 1135.14 1074.29 1139.66 1059.46 C 1160.05 992.632 1123.2 921.551 1055.52 902.113 C 991.785 883.809 924.822 925.588 909.25 989.316 C 898.884 1031.74 906.313 1060.23 927.539 1096.84 C 912.293 1192.74 875.817 1276.96 800.951 1341.15 z"/>
<path transform="translate(0,0)" fill="rgb(24,207,198)" d="M 711.64 1255.86 L 712.378 1254.69 C 738.47 1212.71 753.722 1135.85 750.033 1087.5 C 742.334 986.579 752.49 903.054 825.938 824.582 C 862.59 785.446 909.934 757.941 962.086 745.486 C 1033.69 728.396 1104.87 740.17 1167.42 777.333 C 1263.78 834.581 1310.28 941.578 1303.8 1051 C 1302.84 1067.17 1301.81 1083.74 1301.48 1099.96 C 1300.71 1152.41 1316.93 1212.59 1339.29 1260.08 C 1319.89 1289.47 1278 1323.53 1250.56 1344.7 C 1171.12 1278.36 1135.91 1201.23 1119.74 1100.04 C 1127.72 1086.94 1135.14 1074.29 1139.66 1059.46 C 1160.05 992.632 1123.2 921.551 1055.52 902.113 C 991.785 883.809 924.822 925.588 909.25 989.316 C 898.884 1031.74 906.313 1060.23 927.539 1096.84 C 912.293 1192.74 875.817 1276.96 800.951 1341.15 C 770.645 1318.79 733.377 1286.79 711.64 1255.86 z"/>
<path transform="translate(0,0)" fill="rgb(255,255,255)" d="M 711.64 1255.86 C 698.829 1238.06 687.934 1221.95 677.889 1202.3 C 641.203 1128.88 628.516 1045.79 641.622 964.772 C 658.559 861.083 715.803 768.297 800.873 706.643 C 884.061 645.88 988.211 621.172 1089.83 638.091 C 1191.95 655.775 1282.92 713.158 1342.87 797.704 C 1404.71 883.298 1429.34 990.249 1411.15 1094.27 C 1401.16 1154.6 1376.48 1211.54 1339.29 1260.08 C 1316.93 1212.59 1300.71 1152.41 1301.48 1099.96 C 1301.81 1083.74 1302.84 1067.17 1303.8 1051 C 1310.28 941.578 1263.78 834.581 1167.42 777.333 C 1104.87 740.17 1033.69 728.396 962.086 745.486 C 909.934 757.941 862.59 785.446 825.938 824.582 C 752.49 903.054 742.334 986.579 750.033 1087.5 C 753.722 1135.85 738.47 1212.71 712.378 1254.69 L 711.64 1255.86 z"/>
<path transform="translate(0,0)" fill="rgb(23,12,83)" d="M 900.809 1397.7 C 984.107 1422.84 1057.13 1423.12 1140.58 1399.21 C 1185.91 1447.68 1232.53 1483.33 1297.55 1502.24 C 1256.27 1528.9 1200.25 1551.19 1152.75 1562.68 C 1151.84 1562.94 1150.92 1563.2 1150 1563.44 C 1119.46 1571.56 1081.47 1576.3 1049.9 1577.59 C 941.19 1582.05 846.807 1556.65 753.4 1501.97 C 765.274 1496.12 779.257 1490.48 791.741 1484.34 C 839.963 1460.63 864.895 1435.34 900.809 1397.7 z"/>
</svg>